<svg width="123" height="38" viewBox="0 0 123 38" fill="none" xmlns="http://www.w3.org/2000/svg">
<path d="M113.204 0H9.796C9.42596 0 9.05591 0 8.67558 0C8.35693 0 8.04855 0.0095 7.7299 0.0095C7.0412 0.019 6.3525 0.076 5.67408 0.1805C4.99565 0.285 4.33779 0.4845 3.72104 0.779C3.1043 1.064 2.53894 1.444 2.05582 1.9C1.56243 2.3465 1.15126 2.869 0.842888 3.439C0.534514 4.009 0.318653 4.617 0.205582 5.244C0.0925121 5.871 0.0308374 6.5075 0.0205582 7.144C0.0102791 7.4385 0 7.733 0 8.018V29.9725C0 30.267 0.0102791 30.552 0.0205582 30.8465C0.0308374 31.483 0.0925121 32.1195 0.205582 32.7465C0.318653 33.3735 0.534514 33.991 0.842888 34.5515C1.15126 35.1215 1.56243 35.6345 2.05582 36.081C2.53894 36.537 3.1043 36.9075 3.72104 37.202C4.33779 37.487 4.99565 37.696 5.67408 37.8005C6.3525 37.905 7.0412 37.962 7.7299 37.9715C8.04855 37.9905 8.35693 38 8.67558 38C9.05591 38 9.42596 38 9.796 38H113.204C113.574 38 113.944 38 114.314 38C114.623 38 114.951 38 115.26 37.9905C115.949 37.981 116.637 37.924 117.316 37.8195C117.994 37.715 118.662 37.506 119.279 37.221C119.896 36.936 120.451 36.556 120.944 36.1C121.438 35.6535 121.838 35.131 122.157 34.5705C122.465 34.0005 122.681 33.3925 122.794 32.7655C122.907 32.1385 122.969 31.502 122.99 30.8655C122.99 30.571 122.99 30.286 122.99 29.9915C123 29.6495 123 29.3075 123 28.956V9.063C123 8.7115 123 8.3695 122.99 8.0275C122.99 7.733 122.99 7.448 122.99 7.1535C122.979 6.517 122.918 5.8805 122.794 5.2535C122.681 4.6265 122.465 4.0185 122.157 3.4485C121.52 2.3085 120.512 1.3775 119.279 0.7885C118.662 0.5035 118.004 0.304 117.316 0.19C116.637 0.0855 115.949 0.0285 115.26 0.019C114.951 0.019 114.623 0.0095 114.314 0.0095C113.954 0 113.574 0 113.204 0Z" fill="#A6A6A6"/>
<path d="M8.76772 36.9906C8.45989 36.9906 8.15205 36.9906 7.84422 36.9812C7.19776 36.9718 6.56157 36.9247 5.92537 36.8306C5.33022 36.7365 4.76586 36.5671 4.22202 36.3129C3.68843 36.0682 3.20616 35.7388 2.78545 35.3529C2.36474 34.9671 2.0056 34.5247 1.73881 34.0353C1.47201 33.5459 1.27705 33.0188 1.1847 32.4729C1.08209 31.8894 1.02052 31.2965 1.01026 30.7035C1 30.5059 1 29.8471 1 29.8471V8.10588C1 8.10588 1.01026 7.45647 1.01026 7.26824C1.03078 6.67529 1.08209 6.09176 1.1847 5.50824C1.28731 4.96235 1.47201 4.43529 1.74907 3.94588C2.01586 3.45647 2.36474 3.01412 2.79571 2.62824C3.20616 2.24235 3.69869 1.91294 4.22202 1.66824C4.7556 1.42353 5.33022 1.24471 5.91511 1.16C6.55131 1.06588 7.19776 1.00941 7.84422 1.00941L8.76772 1H114.222L115.156 1.00941C115.792 1.01882 116.428 1.06588 117.064 1.16C117.66 1.25412 118.234 1.42353 118.778 1.67765C119.845 2.17647 120.707 2.97647 121.261 3.95529C121.528 4.44471 121.713 4.97176 121.815 5.50824C121.918 6.09176 121.979 6.68471 121.99 7.28706C121.99 7.55059 121.99 7.84235 121.99 8.12471C122 8.48235 122 8.81176 122 9.15059V28.8494C122 29.1882 122 29.5271 121.99 29.8659C121.99 30.1765 121.99 30.4494 121.99 30.7412C121.979 31.3247 121.918 31.9082 121.815 32.4824C121.723 33.0282 121.528 33.5553 121.261 34.0541C120.994 34.5341 120.635 34.9765 120.215 35.3624C119.794 35.7482 119.312 36.0776 118.778 36.3224C118.234 36.5765 117.66 36.7459 117.064 36.84C116.428 36.9341 115.792 36.9906 115.146 36.9906C114.848 37 114.53 37 114.222 37H113.114L8.76772 36.9906Z" fill="black"/>
<path d="M25.2691 19.2265C25.2879 17.6164 26.124 16.1389 27.4861 15.2959C26.6218 14.0552 25.2315 13.2975 23.7379 13.2501C22.1597 13.0796 20.6285 14.1972 19.83 14.1972C19.0127 14.1972 17.7727 13.2596 16.4388 13.288C14.6821 13.3448 13.0946 14.3298 12.2397 15.8737C10.4267 19.0465 11.7794 23.7064 13.5173 26.2731C14.3909 27.5328 15.4055 28.9346 16.7394 28.8777C18.0452 28.8209 18.5337 28.0443 20.1024 28.0443C21.6618 28.0443 22.1127 28.8777 23.4749 28.8493C24.8746 28.8304 25.7576 27.5896 26.5936 26.3205C27.223 25.4302 27.7021 24.4357 28.0215 23.3939C26.3494 22.6835 25.2691 21.045 25.2691 19.2265Z" fill="white"/>
<path d="M22.7043 11.5643C23.4652 10.6455 23.8409 9.45217 23.747 8.25879C22.5821 8.38192 21.5018 8.94072 20.7315 9.83102C19.9706 10.7024 19.5855 11.8484 19.6606 13.0134C20.8443 13.0228 21.9621 12.4924 22.7043 11.5643Z" fill="white"/>
<path d="M45.7368 25.7616H41.2934L40.2225 28.944H38.3438L42.5522 17.1807H44.5062L48.7147 28.944H46.7983L45.7368 25.7616ZM41.7538 24.2936H45.2765L43.5386 19.1317H43.4916L41.7538 24.2936Z" fill="white"/>
<path d="M57.8177 24.5962C57.8177 27.2576 56.3992 28.9719 54.2668 28.9719C53.1677 29.0287 52.125 28.451 51.5895 27.4755H51.552V31.7186H49.8047V20.3057H51.4956V21.7359H51.5238C52.078 20.7698 53.1208 20.1826 54.2292 20.2205C56.3992 20.2205 57.8177 21.9348 57.8177 24.5962ZM56.0235 24.5962C56.0235 22.863 55.1311 21.7169 53.7783 21.7169C52.4444 21.7169 51.5426 22.8819 51.5426 24.5962C51.5426 26.32 52.4444 27.4849 53.7783 27.4849C55.1311 27.4849 56.0235 26.3484 56.0235 24.5962Z" fill="white"/>
<path d="M67.1736 24.5962C67.1736 27.2576 65.7551 28.9719 63.6227 28.9719C62.5236 29.0287 61.4808 28.451 60.9454 27.4755H60.9078V31.7186H59.1699V20.3057H60.8608V21.7359H60.889C61.4433 20.7698 62.486 20.1826 63.5945 20.2205C65.7551 20.2205 67.1736 21.9348 67.1736 24.5962ZM65.3793 24.5962C65.3793 22.863 64.4869 21.7169 63.1342 21.7169C61.8002 21.7169 60.8984 22.8819 60.8984 24.5962C60.8984 26.32 61.8002 27.4849 63.1342 27.4849C64.4963 27.4849 65.3793 26.3484 65.3793 24.5962Z" fill="white"/>
<path d="M73.3639 25.61C73.4955 26.7749 74.6133 27.5421 76.1539 27.5421C77.6288 27.5421 78.6809 26.7749 78.6809 25.7236C78.6809 24.8144 78.0421 24.265 76.5297 23.8862L75.0173 23.5168C72.8755 22.9959 71.8797 21.9825 71.8797 20.3439C71.8797 18.3171 73.6364 16.9248 76.1258 16.9248C78.587 16.9248 80.2778 18.3171 80.3342 20.3439H78.5682C78.4648 19.1695 77.4973 18.4591 76.0976 18.4591C74.6979 18.4591 73.7303 19.179 73.7303 20.2208C73.7303 21.0543 74.3409 21.5373 75.8439 21.9162L77.1309 22.2382C79.5263 22.8065 80.5221 23.782 80.5221 25.4963C80.5221 27.6936 78.7842 29.0764 76.0224 29.0764C73.4391 29.0764 71.6918 27.7315 71.5791 25.6005L73.3639 25.61Z" fill="white"/>
<path d="M84.2984 18.2793V20.3062H85.9142V21.6984H84.2984V26.4246C84.2984 27.1634 84.6178 27.5043 85.3318 27.5043C85.5196 27.5043 85.7169 27.4854 85.9048 27.4664V28.8493C85.5854 28.9061 85.2566 28.9345 84.9372 28.9345C83.2181 28.9345 82.5418 28.281 82.5418 26.6235V21.7079H81.3018V20.3156H82.5418V18.2793H84.2984Z" fill="white"/>
<path d="M86.8535 24.5968C86.8535 21.8975 88.4317 20.2021 90.8835 20.2021C93.3448 20.2021 94.9136 21.8975 94.9136 24.5968C94.9136 27.3056 93.3541 28.9915 90.8835 28.9915C88.4129 28.9915 86.8535 27.3056 86.8535 24.5968ZM93.1381 24.5968C93.1381 22.7499 92.2926 21.6513 90.8835 21.6513C89.4744 21.6513 88.629 22.7499 88.629 24.5968C88.629 26.4532 89.465 27.5424 90.8835 27.5424C92.302 27.5424 93.1381 26.4532 93.1381 24.5968Z" fill="white"/>
<path d="M96.3604 20.3056H98.0231V21.7642H98.0607C98.2956 20.8265 99.1504 20.1825 100.109 20.2109C100.306 20.2109 100.513 20.2298 100.71 20.2772V21.9252C100.456 21.8494 100.193 21.8115 99.9302 21.821C98.9626 21.7831 98.1359 22.5408 98.0983 23.5258C98.0983 23.6205 98.0983 23.7058 98.1077 23.8005V28.8866H96.3604V20.3056Z" fill="white"/>
<path d="M108.751 26.368C108.516 27.9212 107.013 28.9915 105.087 28.9915C102.617 28.9915 101.076 27.3245 101.076 24.6347C101.076 21.9449 102.617 20.2021 105.012 20.2021C107.361 20.2021 108.845 21.8312 108.845 24.4358V25.042H102.842V25.1462C102.739 26.3774 103.631 27.4571 104.853 27.5708C104.946 27.5803 105.04 27.5803 105.125 27.5803C105.97 27.656 106.769 27.173 107.088 26.3774L108.751 26.368ZM102.852 23.8012H107.107C107.173 22.6647 106.309 21.6891 105.181 21.6323C105.125 21.6323 105.078 21.6323 105.022 21.6323C103.829 21.6228 102.861 22.5889 102.852 23.7918V23.8012Z" fill="white"/>
<path d="M41.5369 8.26775C42.899 8.17304 44.0921 9.2054 44.186 10.5787C44.1954 10.7397 44.1954 10.9102 44.1766 11.0712C44.1766 12.8802 43.209 13.9126 41.5369 13.9126H39.5078V8.26775H41.5369ZM40.3814 13.117H41.4336C42.4011 13.1739 43.2372 12.4256 43.2936 11.4501C43.303 11.327 43.2936 11.2038 43.2748 11.0807C43.4063 10.1052 42.7299 9.2054 41.7624 9.0728C41.6496 9.05386 41.5369 9.05386 41.4242 9.06333H40.3814V13.117Z" fill="white"/>
<path d="M48.9393 12.767C48.7045 13.5721 47.9342 14.093 47.1075 13.9983C46.046 14.0267 45.1629 13.1837 45.1348 12.1135C45.1348 12.0093 45.1348 11.9051 45.1536 11.8009C45.0126 10.7212 45.7642 9.73621 46.8257 9.59414C46.9196 9.58467 47.0135 9.5752 47.0981 9.5752C48.2723 9.5752 48.9863 10.3897 48.9863 11.7252V12.0188H45.999V12.0661C45.9426 12.6912 46.4029 13.2311 47.0229 13.2879C47.0605 13.2879 47.0981 13.2879 47.1263 13.2879C47.5302 13.3353 47.9342 13.1364 48.1314 12.767H48.9393ZM46.0084 11.3937H48.1408C48.1784 10.8254 47.7651 10.3329 47.2014 10.295C47.1639 10.295 47.1357 10.295 47.0981 10.295C46.4969 10.2855 46.0084 10.7686 45.999 11.3747C46.0084 11.3747 46.0084 11.3842 46.0084 11.3937Z" fill="white"/>
<path d="M51.6545 9.5752C52.6033 9.5752 53.2233 10.0203 53.3079 10.778H52.5094C52.4342 10.4655 52.1242 10.2666 51.6545 10.2666C51.1848 10.2666 50.8372 10.4939 50.8372 10.8254C50.8372 11.0811 51.0533 11.2421 51.5136 11.3463L52.2182 11.5073C53.026 11.6968 53.4018 12.0472 53.4018 12.6723C53.4018 13.4774 52.6597 14.0078 51.6451 14.0078C50.64 14.0078 49.9824 13.5531 49.9072 12.7954H50.7433C50.8936 13.1648 51.2694 13.3827 51.6639 13.3258C52.1806 13.3258 52.5563 13.089 52.5563 12.7481C52.5563 12.4924 52.3591 12.3313 51.9363 12.2272L51.1942 12.0567C50.3863 11.8672 50.02 11.4979 50.02 10.8633C50.02 10.1056 50.7057 9.5752 51.6545 9.5752Z" fill="white"/>
<path d="M57.2907 11.0524C57.178 10.5978 56.7552 10.2852 56.2949 10.3326C55.5997 10.3326 55.1676 10.8724 55.1676 11.7817C55.1676 12.7099 55.5997 13.2592 56.2949 13.2592C56.7552 13.316 57.1874 13.0129 57.2907 12.5583H58.0986C57.9859 13.4581 57.1874 14.1021 56.2949 14.0074C55.224 14.0453 54.3221 13.1929 54.2939 12.1132C54.2939 11.9995 54.2939 11.8859 54.3127 11.7817C54.1718 10.7209 54.914 9.73587 55.9661 9.5938C56.0694 9.57486 56.1822 9.57485 56.2949 9.57485C57.1967 9.48961 57.9953 10.1431 58.108 11.0524H57.2907Z" fill="white"/>
<path d="M58.9248 12.7102C58.9248 11.943 59.4884 11.4979 60.4936 11.441L61.6396 11.3747V11.0054C61.6396 10.5507 61.3484 10.3045 60.7754 10.3045C60.3057 10.3045 59.9863 10.475 59.8924 10.7781H59.0845C59.169 10.0488 59.8548 9.5752 60.813 9.5752C61.8744 9.5752 62.4756 10.1056 62.4756 11.0054V13.9225H61.6678V13.3258H61.6114C61.339 13.7615 60.8505 14.0172 60.3433 13.9983C59.6387 14.0741 59.0093 13.5531 58.9436 12.8523C58.9342 12.7954 58.9248 12.7575 58.9248 12.7102ZM61.649 12.3503V11.9904L60.6157 12.0567C60.0333 12.0946 59.7702 12.2935 59.7702 12.6723C59.7702 13.0606 60.099 13.2785 60.5499 13.2785C61.0948 13.3353 61.5832 12.928 61.6396 12.3787C61.649 12.3692 61.649 12.3598 61.649 12.3503ZM60.3245 8.94062L61.3014 7.5957H62.2784L61.1887 8.94062H60.3245Z" fill="white"/>
<path d="M63.791 9.65091H64.5989V10.3044H64.6647C64.8525 9.84033 65.3128 9.54672 65.8107 9.57514C65.9328 9.57514 66.0643 9.58461 66.1865 9.61302V10.4465C66.0362 10.4181 65.8765 10.3991 65.7168 10.3991C65.1719 10.3518 64.6928 10.759 64.6365 11.3084C64.6365 11.3368 64.6365 11.3747 64.6365 11.4031V13.9225H63.8004L63.791 9.65091Z" fill="white"/>
<path d="M66.9376 14.3492H67.7925C67.8676 14.6618 68.2152 14.8607 68.7788 14.8607C69.474 14.8607 69.8873 14.5292 69.8873 13.9609V13.1464H69.8216C69.5585 13.6105 69.0513 13.8946 68.5158 13.8662C67.4355 13.8662 66.7686 13.0232 66.7686 11.7446C66.7686 10.447 67.4449 9.59461 68.5252 9.59461C69.07 9.57567 69.5867 9.86928 69.8497 10.3428H69.9155V9.66091H70.714V13.9609C70.714 14.9364 69.9531 15.5521 68.76 15.5521C67.7079 15.5521 67.0222 15.069 66.9376 14.3492ZM69.8967 11.7351C69.8967 10.8827 69.4646 10.3428 68.7507 10.3428C68.0367 10.3428 67.6328 10.8827 67.6328 11.7351C67.6328 12.5876 68.0367 13.1274 68.7507 13.1274C69.4646 13.1274 69.8967 12.5876 69.8967 11.7351Z" fill="white"/>
<path d="M71.8037 12.7102C71.8037 11.943 72.3673 11.4979 73.3725 11.441L74.5186 11.3747V11.0054C74.5186 10.5507 74.2274 10.3045 73.6543 10.3045C73.1846 10.3045 72.8652 10.475 72.7713 10.778H71.9634C72.048 10.0488 72.7337 9.5752 73.6919 9.5752C74.7534 9.5752 75.3546 10.1056 75.3546 11.0054V13.9225H74.5468V13.3258H74.481C74.2086 13.7615 73.7201 14.0172 73.2128 13.9983C72.5083 14.0741 71.8789 13.5531 71.8131 12.8523C71.8131 12.7954 71.8037 12.7575 71.8037 12.7102ZM74.528 12.3503V11.9904L73.4946 12.0567C72.9122 12.0946 72.6492 12.2935 72.6492 12.6723C72.6492 13.0606 72.978 13.2785 73.4289 13.2785C73.9737 13.3353 74.4622 12.928 74.5186 12.3787C74.528 12.3692 74.528 12.3598 74.528 12.3503Z" fill="white"/>
<path d="M76.708 7.99316H77.5441V13.9222H76.708V7.99316Z" fill="white"/>
<path d="M78.6993 11.7817C78.596 10.6736 79.4039 9.68859 80.503 9.57494C81.602 9.46128 82.579 10.2853 82.6917 11.3934C82.7011 11.526 82.7011 11.6491 82.6917 11.7817C82.7951 12.8899 81.9966 13.8844 80.8881 13.9886C79.789 14.0927 78.8027 13.2877 78.6993 12.1701C78.6899 12.0469 78.6899 11.9143 78.6993 11.7817ZM81.8275 11.7817C81.8275 10.8536 81.4142 10.3137 80.6908 10.3137C79.9675 10.3137 79.5542 10.8536 79.5542 11.7817C79.5542 12.7099 79.9581 13.2498 80.6908 13.2498C81.4142 13.2498 81.8275 12.7099 81.8275 11.7817Z" fill="white"/>
<path d="M89.6806 12.767C89.4458 13.5721 88.6755 14.093 87.8488 13.9983C86.7872 14.0267 85.9042 13.1837 85.876 12.1135C85.876 12.0093 85.876 11.9051 85.8948 11.8009C85.7539 10.7212 86.5054 9.73621 87.5669 9.59414C87.6609 9.58467 87.7548 9.5752 87.8394 9.5752C89.0137 9.5752 89.7276 10.3897 89.7276 11.7252V12.0188H86.7402V12.0661C86.6839 12.6912 87.1442 13.2311 87.7642 13.2879C87.8018 13.2879 87.8394 13.2879 87.8676 13.2879C88.2715 13.3353 88.6755 13.1364 88.8727 12.767H89.6806ZM86.7402 11.3937H88.8727C88.9103 10.8254 88.497 10.3329 87.9333 10.295C87.8957 10.295 87.8676 10.295 87.83 10.295C87.2287 10.2855 86.7403 10.7686 86.7309 11.3747C86.7403 11.3747 86.7402 11.3842 86.7402 11.3937Z" fill="white"/>
<path d="M90.8555 9.65093H91.6633V10.3329H91.7291C91.9452 9.83089 92.4524 9.5278 92.9879 9.57516C93.7488 9.51833 94.4064 10.0866 94.4627 10.8538C94.4721 10.958 94.4627 11.0622 94.4533 11.1569V13.913H93.6173V11.3652C93.6173 10.6833 93.3261 10.3423 92.7061 10.3423C92.1706 10.3139 91.7197 10.7307 91.6915 11.2705C91.6915 11.3179 91.6915 11.3747 91.6915 11.4221V13.913H90.8555V9.65093Z" fill="white"/>
<path d="M101.611 12.767C101.376 13.5721 100.606 14.093 99.7794 13.9983C98.7179 14.0267 97.8348 13.1837 97.8066 12.1135C97.8066 12.0093 97.8066 11.9051 97.8254 11.8009C97.6845 10.7212 98.436 9.73621 99.4976 9.59414C99.5915 9.58467 99.6855 9.5752 99.77 9.5752C100.944 9.5752 101.658 10.3897 101.658 11.7252V12.0188H98.6709V12.0661C98.6145 12.6912 99.0748 13.2311 99.6949 13.2879C99.7324 13.2879 99.77 13.2879 99.7982 13.2879C100.202 13.3353 100.606 13.1364 100.803 12.767H101.611ZM98.6709 11.3937H100.803C100.841 10.8254 100.428 10.3329 99.864 10.295C99.8264 10.295 99.7982 10.295 99.7606 10.295C99.1594 10.2855 98.6709 10.7686 98.6615 11.3747C98.6709 11.3747 98.6709 11.3842 98.6709 11.3937Z" fill="white"/>
<path d="M102.813 7.99316H103.649V13.9222H102.813V7.99316Z" fill="white"/>
</svg>
